<svg width="821" height="137" viewBox="0 0 821 137" fill="none" xmlns="http://www.w3.org/2000/svg">
<path fill-rule="evenodd" clip-rule="evenodd" d="M114.116 2.37981C113.691 1.04984 113.196 0.724888 112.262 0.402233C112.262 0.402233 33.0223 0.237688 31.2916 0.402233C29.5609 0.566778 7.06242 3.36849 5.70258 30.3938C4.34275 57.4191 18.3116 63.8665 31.2916 68.9541C32.9788 69.6154 35.1547 70.4668 37.6717 71.4516C54.5185 78.043 86.6441 90.6123 89.763 92.1891C93.348 94.0015 95.5001 98.7955 95.0786 104.219C94.9145 106.331 94.3118 108.194 93.4213 109.745C89.9081 108.209 34.232 83.9029 25.8524 82.4666C17.199 80.9834 11.2659 83.8554 5.70258 92.1891C1.66794 98.233 -0.195258 103.384 0.0161436 111.469C0.210449 118.901 1.7468 124.158 5.70258 128.937C9.65837 133.716 12.5016 136.517 18.188 136.682C23.8745 136.847 39.3618 137.203 52.9248 136.847C61.822 136.613 62.3982 136.626 65.2766 136.69C67.8543 136.748 72.2782 136.847 86.1781 136.847C115.599 136.847 121.656 82.739 96.0675 72.2498C70.4786 61.7605 42.7881 50.4979 31.2916 46.0485C19.7951 41.5991 20.815 25.0722 31.2916 22.1544C38.5698 20.1273 69.0861 20.9962 88.5324 21.5499C97.078 21.7933 103.486 21.9757 104.844 21.8248C109.268 21.3334 110.394 19.2143 112.47 15.3056L112.509 15.2334C113.643 13.0992 114.077 10.741 114.363 7.65303C114.576 5.35379 114.541 3.70978 114.116 2.37981ZM21.0313 114.765C19.6715 114.765 17.57 113.612 17.3227 110.316C17.0755 107.02 19.4242 103.395 22.1438 103.724C24.8634 104.054 49.8343 114.765 49.8343 114.765C41.4157 114.765 30.7423 114.765 25.0138 114.765H24.5922L21.0313 114.765Z" fill="url(#paint0_linear_47_82)"/>
<path d="M248.46 12.341C251.924 1.64562 248.46 0.00016775 248.46 0.00016775L154.298 0C144.275 4.28046e-05 131.654 10.3663 128.436 33.8964L114.578 131.8C114.578 131.8 114.084 135.256 115.444 136.408C116.804 137.56 131.902 138.382 134.004 125.219C136.106 112.055 139.82 85.728 139.82 85.728C139.82 85.728 140.067 84.2471 141.799 84.2471H180.405C191.077 84.1999 193.959 78.1405 195.872 61.0463H144.274C144.274 61.0463 143.408 61.0463 143.408 59.7299C143.408 58.4136 147.12 33.8964 147.12 33.8964C147.12 33.8964 148.11 22.2137 154.668 22.2137H237.447C238.313 22.2137 244.995 23.0364 248.46 12.341Z" fill="url(#paint1_linear_47_82)"/>
<path d="M767.038 102.384L751.622 51.7876H759.791L770.727 90.5253H771.254L782.059 51.7876H790.36L801.032 90.3935H801.559L812.496 51.7876H820.665L805.249 102.384H797.607L786.539 63.5143H785.748L774.68 102.384H767.038Z" fill="#2DD4BF"/>
<path d="M722.502 103.438C717.934 103.438 713.926 102.351 710.478 100.177C707.053 98.0028 704.373 94.9613 702.441 91.0524C700.53 87.1435 699.575 82.5758 699.575 77.3493C699.575 72.0789 700.53 67.4782 702.441 63.5474C704.373 59.6165 707.053 56.564 710.478 54.39C713.926 52.2159 717.934 51.1289 722.502 51.1289C727.069 51.1289 731.066 52.2159 734.492 54.39C737.94 56.564 740.619 59.6165 742.529 63.5474C744.462 67.4782 745.428 72.0789 745.428 77.3493C745.428 82.5758 744.462 87.1435 742.529 91.0524C740.619 94.9613 737.94 98.0028 734.492 100.177C731.066 102.351 727.069 103.438 722.502 103.438ZM722.502 96.4546C725.971 96.4546 728.826 95.5652 731.066 93.7865C733.306 92.0077 734.964 89.6689 736.04 86.7702C737.116 83.8715 737.654 80.7312 737.654 77.3493C737.654 73.9674 737.116 70.8162 736.04 67.8955C734.964 64.9748 733.306 62.6141 731.066 60.8133C728.826 59.0126 725.971 58.1122 722.502 58.1122C719.032 58.1122 716.177 59.0126 713.937 60.8133C711.697 62.6141 710.039 64.9748 708.963 67.8955C707.887 70.8162 707.349 73.9674 707.349 77.3493C707.349 80.7312 707.887 83.8715 708.963 86.7702C710.039 89.6689 711.697 92.0077 713.937 93.7865C716.177 95.5652 719.032 96.4546 722.502 96.4546Z" fill="#2DD4BF"/>
<path d="M687.709 34.9222V102.384H679.936V34.9222H687.709Z" fill="#2DD4BF"/>
<path d="M626.548 102.384V34.9222H666.998V42.1691H634.717V64.9637H663.968V72.2105H634.717V102.384H626.548Z" fill="#2DD4BF"/>
<path d="M588.115 103.57C584.909 103.57 581.999 102.966 579.386 101.758C576.773 100.528 574.698 98.7604 573.16 96.4546C571.623 94.1269 570.854 91.316 570.854 88.0219C570.854 85.1232 571.425 82.7735 572.567 80.9727C573.709 79.15 575.236 77.7226 577.146 76.6905C579.057 75.6584 581.165 74.8898 583.471 74.3847C585.798 73.8576 588.137 73.4404 590.487 73.133C593.561 72.7377 596.054 72.4412 597.964 72.2436C599.897 72.024 601.302 71.6616 602.181 71.1565C603.081 70.6515 603.531 69.7731 603.531 68.5213V68.2578C603.531 65.0077 602.642 62.4823 600.863 60.6816C599.106 58.8808 596.438 57.9805 592.859 57.9805C589.147 57.9805 586.238 58.793 584.129 60.418C582.021 62.0431 580.539 63.7779 579.682 65.6226L572.304 62.9874C573.621 59.913 575.378 57.5193 577.574 55.8064C579.792 54.0716 582.208 52.8638 584.821 52.183C587.456 51.4803 590.048 51.1289 592.595 51.1289C594.22 51.1289 596.087 51.3265 598.195 51.7218C600.325 52.0951 602.378 52.8747 604.355 54.0606C606.353 55.2464 608.011 57.0362 609.329 59.4298C610.646 61.8235 611.305 65.0297 611.305 69.0484V102.384H603.531V95.5323H603.136C602.609 96.6303 601.73 97.8052 600.501 99.0569C599.271 100.309 597.635 101.374 595.593 102.252C593.55 103.131 591.058 103.57 588.115 103.57ZM589.301 96.5864C592.375 96.5864 594.967 95.9825 597.075 94.7747C599.205 93.5669 600.808 92.0077 601.884 90.0972C602.982 88.1866 603.531 86.1773 603.531 84.0691V76.954C603.202 77.3493 602.477 77.7116 601.357 78.041C600.259 78.3485 598.985 78.623 597.536 78.8646C596.109 79.0842 594.714 79.2818 593.353 79.4575C592.013 79.6112 590.926 79.743 590.092 79.8528C588.071 80.1163 586.183 80.5445 584.426 81.1374C582.691 81.7084 581.286 82.5758 580.21 83.7397C579.155 84.8816 578.628 86.4408 578.628 88.4172C578.628 91.1183 579.628 93.1606 581.626 94.5441C583.646 95.9056 586.205 96.5864 589.301 96.5864Z" fill="white"/>
<path d="M492.604 102.384V51.7877H500.115V59.6934H500.774C501.828 56.9923 503.53 54.8951 505.879 53.4018C508.229 51.8865 511.051 51.1289 514.345 51.1289C517.683 51.1289 520.461 51.8865 522.679 53.4018C524.919 54.8951 526.665 56.9923 527.916 59.6934H528.443C529.739 57.0801 531.683 55.0049 534.274 53.4677C536.865 51.9085 539.973 51.1289 543.596 51.1289C548.12 51.1289 551.82 52.5453 554.697 55.3782C557.574 58.1891 559.012 62.5701 559.012 68.5213V102.384H551.238V68.5213C551.238 64.7881 550.217 62.12 548.175 60.5169C546.132 58.9138 543.728 58.1122 540.961 58.1122C537.403 58.1122 534.647 59.1883 532.693 61.3404C530.738 63.4705 529.761 66.1716 529.761 69.4437V102.384H521.855V67.7308C521.855 64.854 520.922 62.5372 519.055 60.7804C517.189 59.0016 514.784 58.1122 511.842 58.1122C509.821 58.1122 507.933 58.6502 506.176 59.7263C504.441 60.8023 503.036 62.2956 501.96 64.2062C500.905 66.0947 500.378 68.2798 500.378 70.7613V102.384H492.604Z" fill="white"/>
<path d="M459.829 103.438C454.954 103.438 450.749 102.362 447.213 100.21C443.7 98.0358 440.988 95.0053 439.077 91.1183C437.188 87.2094 436.244 82.6637 436.244 77.4811C436.244 72.2985 437.188 67.7308 439.077 63.7779C440.988 59.8032 443.645 56.7068 447.049 54.4888C450.474 52.2489 454.471 51.1289 459.039 51.1289C461.674 51.1289 464.276 51.5681 466.846 52.4465C469.415 53.3249 471.754 54.7523 473.862 56.7287C475.97 58.6832 477.65 61.2745 478.902 64.5026C480.153 67.7308 480.779 71.7055 480.779 76.427V79.721H441.778V73.0012H472.874C472.874 70.1464 472.303 67.599 471.161 65.3591C470.041 63.1191 468.438 61.3513 466.351 60.0557C464.287 58.7601 461.85 58.1122 459.039 58.1122C455.942 58.1122 453.263 58.8808 451.001 60.418C448.761 61.9333 447.038 63.9097 445.83 66.3473C444.622 68.7848 444.018 71.3981 444.018 74.187V78.6669C444.018 82.488 444.677 85.7271 445.994 88.3843C447.334 91.0195 449.19 93.0288 451.561 94.4123C453.933 95.7739 456.689 96.4546 459.829 96.4546C461.872 96.4546 463.716 96.1691 465.363 95.5982C467.032 95.0053 468.471 94.1268 469.678 92.963C470.886 91.7771 471.82 90.3058 472.478 88.549L479.989 90.6571C479.198 93.2045 477.87 95.4445 476.003 97.3769C474.136 99.2875 471.831 100.781 469.086 101.857C466.341 102.911 463.255 103.438 459.829 103.438Z" fill="white"/>
<path d="M391.585 71.947V102.384H383.812V34.9222H391.585V59.6933H392.244C393.43 57.08 395.209 55.0048 397.581 53.4676C399.974 51.9084 403.158 51.1288 407.133 51.1288C410.581 51.1288 413.6 51.8206 416.192 53.2041C418.783 54.5656 420.792 56.6628 422.22 59.4956C423.669 62.3065 424.394 65.886 424.394 70.2341V102.384H416.62V70.7612C416.62 66.7425 415.577 63.6351 413.491 61.4391C411.426 59.2211 408.561 58.1121 404.893 58.1121C402.346 58.1121 400.062 58.6502 398.042 59.7262C396.043 60.8023 394.462 62.3724 393.298 64.4367C392.156 66.5009 391.585 69.0044 391.585 71.947Z" fill="white"/>
<path d="M352.55 103.438C347.807 103.438 343.722 102.318 340.297 100.078C336.871 97.8381 334.236 94.7527 332.391 90.8218C330.546 86.891 329.624 82.4001 329.624 77.3493C329.624 72.2106 330.568 67.6759 332.457 63.745C334.367 59.7922 337.025 56.7068 340.428 54.4888C343.854 52.2489 347.851 51.1289 352.419 51.1289C355.976 51.1289 359.182 51.7877 362.037 53.1053C364.892 54.4229 367.231 56.2676 369.053 58.6393C370.876 61.011 372.007 63.7779 372.446 66.9402H364.672C364.079 64.6344 362.762 62.5921 360.72 60.8133C358.699 59.0126 355.976 58.1122 352.55 58.1122C349.52 58.1122 346.863 58.9028 344.579 60.4839C342.317 62.0431 340.549 64.2501 339.275 67.1049C338.024 69.9378 337.398 73.2647 337.398 77.0858C337.398 80.9947 338.013 84.3985 339.243 87.2972C340.494 90.196 342.251 92.4469 344.513 94.05C346.797 95.6531 349.476 96.4546 352.55 96.4546C354.571 96.4546 356.404 96.1033 358.051 95.4005C359.698 94.6978 361.093 93.6876 362.235 92.37C363.377 91.0524 364.189 89.4713 364.672 87.6267H372.446C372.007 90.6132 370.92 93.3033 369.185 95.697C367.472 98.0687 365.199 99.9573 362.367 101.363C359.556 102.746 356.284 103.438 352.55 103.438Z" fill="white"/>
<path d="M310.792 51.7877C310.396 48.4498 308.793 45.8585 305.982 44.0138C303.172 42.1692 299.724 41.2468 295.639 41.2468C292.653 41.2468 290.039 41.73 287.8 42.6962C285.582 43.6625 283.847 44.991 282.595 46.682C281.365 48.3729 280.75 50.2944 280.75 52.4465C280.75 54.2472 281.179 55.7954 282.035 57.0911C282.913 58.3648 284.033 59.4298 285.395 60.2863C286.756 61.1208 288.184 61.8125 289.677 62.3615C291.17 62.8886 292.543 63.3168 293.795 63.6462L300.646 65.4908C302.403 65.952 304.357 66.5888 306.51 67.4014C308.684 68.2139 310.759 69.3229 312.735 70.7283C314.734 72.1118 316.381 73.8906 317.676 76.0646C318.972 78.2387 319.62 80.9068 319.62 84.0691C319.62 87.7145 318.664 91.0085 316.754 93.9512C314.865 96.8938 312.098 99.2326 308.453 100.967C304.83 102.702 300.427 103.57 295.244 103.57C290.413 103.57 286.229 102.79 282.694 101.231C279.18 99.6718 276.413 97.4977 274.393 94.7088C272.394 91.9199 271.264 88.6807 271 84.9914H279.433C279.652 87.5388 280.509 89.647 282.002 91.316C283.517 92.963 285.428 94.1927 287.734 95.0053C290.061 95.7958 292.565 96.1911 295.244 96.1911C298.362 96.1911 301.162 95.686 303.644 94.6758C306.125 93.6437 308.091 92.2163 309.54 90.3936C310.989 88.549 311.714 86.3969 311.714 83.9373C311.714 81.6974 311.088 79.8747 309.836 78.4693C308.585 77.0638 306.938 75.9219 304.895 75.0435C302.853 74.1651 300.646 73.3965 298.274 72.7377L289.974 70.366C284.703 68.8507 280.531 66.6877 277.456 63.8768C274.382 61.0659 272.845 57.3875 272.845 52.8418C272.845 49.0647 273.866 45.7706 275.908 42.9597C277.972 40.1269 280.739 37.9309 284.209 36.3717C287.701 34.7906 291.599 34 295.903 34C300.251 34 304.116 34.7796 307.498 36.3388C310.88 37.876 313.559 39.9841 315.535 42.6633C317.534 45.3424 318.588 48.3839 318.697 51.7877H310.792Z" fill="white"/>
<defs>
<linearGradient id="paint0_linear_47_82" x1="57.2453" y1="0.329102" x2="57.2453" y2="137" gradientUnits="userSpaceOnUse">
<stop stop-color="#2DD4BF"/>
<stop offset="1" stop-color="#9186EE"/>
</linearGradient>
<linearGradient id="paint1_linear_47_82" x1="182.245" y1="0" x2="182.245" y2="137" gradientUnits="userSpaceOnUse">
<stop stop-color="#2DD4BF"/>
<stop offset="1" stop-color="#9186EE"/>
</linearGradient>
</defs>
</svg>
